# xmcd
#
# Track frame offsets: 
#        150
#        15209
#        32945
#        50732
#        69370
#        87151
#        111257
#        127174
#        142868
#        164959
#        183404
#        204730
#        223637
#
# Disc length: 3234 seconds
#
# Revision: 0
# Processed by: cddbd v1.5.2PL0 Copyright (c) Steve Scherf et al.
# Submitted via: ExactAudioCopy v0.99pb5
#
DISCID=c10ca00d
DTITLE=Lil' Davy Max - Livin' Drivin' and Playin' The Blues!!
DYEAR=1996
DGENRE=Blues
TTITLE0=You Got Me Walkin' On All Three Legs
TTITLE1=Think Before You Jump
TTITLE2=If You Had To Live My Life (You'd Be In Your Grave By Now)
TTITLE3=Little Girl
TTITLE4=She's A Dozen Roses Mad
TTITLE5=Victim Of Passion
TTITLE6=Tell Me Why
TTITLE7=Sweet Young Thing
TTITLE8=Bad Luck, Hard Times
TTITLE9=The Sweetest Little Apple
TTITLE10=I've Got My Eyes On You
TTITLE11=Christmas In The Jailhouse
TTITLE12=You're Just A Memory To Me
EXTD=
EXTT0=
EXTT1=
EXTT2=
EXTT3=
EXTT4=
EXTT5=
EXTT6=
EXTT7=
EXTT8=
EXTT9=
EXTT10=
EXTT11=
EXTT12=
PLAYORDER=
